<svg xmlns="http://www.w3.org/2000/svg" width="1024" height="256" viewBox="0 0 1024 256" role="img" aria-label="Medication Tracker logo">
  <rect width="1024" height="256" rx="48" fill="#f8fafc"/>
  <rect x="36" y="36" width="184" height="184" rx="42" fill="#0f766e"/>
  <path fill="#f8fafc" d="M88 82c19-19 50-19 69 0l29 29c19 19 19 50 0 69s-50 19-69 0l-29-29c-19-19-19-50 0-69Z"/>
  <path fill="#14b8a6" d="m145 91 29 29c12 12 12 32 0 44s-32 12-44 0l-29-29 44-44Z"/>
  <path fill="none" stroke="#0f766e" stroke-linecap="round" stroke-width="11" d="m108 101 59 59"/>
  <path fill="none" stroke="#f97316" stroke-linecap="round" stroke-linejoin="round" stroke-width="13" d="m88 177 18 18 41-50"/>
  <text x="260" y="115" fill="#0f172a" font-family="Arial, Helvetica, sans-serif" font-size="58" font-weight="700">Medication Tracker</text>
  <text x="264" y="169" fill="#475569" font-family="Arial, Helvetica, sans-serif" font-size="30" font-weight="500">Local dose reminders and history for Home Assistant</text>
</svg>
